IKResults
version=1
nRows=5
nColumns=63
inDegrees=yes

Units are S.I. units (second, meters, Newtons, ...)
If the header above contains a line with 'inDegrees', this indicates whether rotational values are in degrees (yes) or radians (no).

endheader
time	pelvis_tilt	pelvis_list	pelvis_rotation	pelvis_tx	pelvis_ty	pelvis_tz	hip_flexion_r	hip_adduction_r	hip_rotation_r	knee_angle_r	knee_angle_r_beta	ankle_angle_r	subtalar_angle_r	mtp_angle_r	hip_flexion_l	hip_adduction_l	hip_rotation_l	knee_angle_l	knee_angle_l_beta	ankle_angle_l	subtalar_angle_l	mtp_angle_l	L5_S1_Flex_Ext	L5_S1_Lat_Bending	L5_S1_axial_rotation	L4_L5_Flex_Ext	L4_L5_Lat_Bending	L4_L5_axial_rotation	L3_L4_Flex_Ext	L3_L4_Lat_Bending	L3_L4_axial_rotation	L2_L3_Flex_Ext	L2_L3_Lat_Bending	L2_L3_axial_rotation	L1_L2_Flex_Ext	L1_L2_Lat_Bending	L1_L2_axial_rotation	L1_T12_Flex_Ext	L1_T12_Lat_Bending	L1_T12_axial_rotation	Abs_r3	Abs_r2	Abs_r1	Abs_t1	Abs_t2	neck_flexion	neck_bending	neck_rotation	arm_flex_r	arm_add_r	arm_rot_r	elbow_flex_r	pro_sup_r	wrist_flex_r	wrist_dev_r	arm_flex_l	arm_add_l	arm_rot_l	elbow_flex_l	pro_sup_l	wrist_flex_l	wrist_dev_l
      0.03333333	      4.86515455	     -6.06586332	    -55.35314610	     -0.58975568	      0.98545864	     -0.96773741	    -10.30621886	     -0.81186651	     26.95085701	     12.98216094	      0.22658145	      0.00000000	      0.00000000	      0.00000000	     -8.86174577	     -7.88289918	    -20.39966784	     13.05589473	      0.22786835	     25.66162049	     -1.37204536	      0.00000000	     -2.83526317	     -0.20195664	     -0.96240390	     -5.26536723	     -0.26860234	     -1.02255415	     -4.65805386	     -0.49103738	     -1.02255415	     -3.24042228	     -0.49103738	     -0.84210342	     -2.63282538	     -0.41182999	     -0.78195317	     -1.62006937	     -0.31283084	     -0.72180293	    -20.25200129	     -2.28457394	     -5.35260179	      0.00000000	      0.00000000	      2.26361866	     -1.78287970	     -5.43508577	     -6.48613190	    -16.13029066	     21.17047367	     45.60001722	     89.99559364	      0.00000000	      0.00000000	     -0.12109809	    -15.90081431	     14.18710620	     37.81247267	     89.99559364	      0.00000000	      0.00000000
      0.06666667	      4.85247334	     -6.03322538	    -55.30301928	     -0.58953438	      0.98544449	     -0.96759479	    -10.29152741	     -0.80641624	     26.94782844	     12.97822255	      0.22651271	      0.00000000	      0.00000000	      0.00000000	     -8.83257171	     -7.87963966	    -20.38064037	     13.04959088	      0.22775833	     25.66452088	     -1.36686688	      0.00000000	     -2.83459574	     -0.20165911	     -0.95402286	     -5.26412774	     -0.26820662	     -1.01364929	     -4.65695733	     -0.49031396	     -1.01364929	     -3.23965947	     -0.49031396	     -0.83477000	     -2.63220560	     -0.41122326	     -0.77514357	     -1.61968800	     -0.31236996	     -0.71551715	    -20.24723388	     -2.28120820	     -5.30598894	      0.00000000	      0.00000000	      2.31807944	     -1.71874158	     -5.45846396	     -6.51836433	    -16.12909407	     21.17186096	     45.40600698	     89.99559364	      0.00000000	      0.00000000	     -0.07075353	    -15.87494499	     14.20272610	     37.83656681	     89.99559364	      0.00000000	      0.00000000
      0.10000000	      4.72798239	     -5.94799228	    -55.27175778	     -0.58952193	      0.98541426	     -0.96738481	    -10.15560747	     -0.72534360	     26.95303114	     12.96990194	      0.22636749	      0.00000000	      0.00000000	      0.00000000	     -8.67610290	     -7.95912803	    -20.27277442	     13.06633862	      0.22805063	     25.65447025	     -1.32508586	      0.00000000	     -2.82659677	     -0.20158762	     -0.93294254	     -5.24927287	     -0.26811153	     -0.99125144	     -4.64381584	     -0.49014013	     -0.99125144	     -3.23051745	     -0.49014013	     -0.81632472	     -2.62477776	     -0.41107747	     -0.75801581	     -1.61511740	     -0.31225922	     -0.69970690	    -20.19009810	     -2.28039944	     -5.18874650	      0.00000000	      0.00000000	      2.52314170	     -1.27838842	     -5.68404057	     -6.35612330	    -15.90438085	     21.07008847	     44.51561500	     89.99559364	      0.00000000	      0.00000000	      0.06078537	    -15.89318110	     14.30414401	     37.79810461	     89.99559364	      0.00000000	      0.00000000
      0.13333333	      4.59235486	     -5.79511251	    -55.16837548	     -0.58941512	      0.98536126	     -0.96698808	     -9.95994014	     -0.63045591	     26.97665949	     13.02284598	      0.22729154	      0.00000000	      0.00000000	      0.00000000	     -8.41774960	     -8.04070435	    -20.16715993	     13.15809541	      0.22965209	     25.62103835	     -1.28756901	      0.00000000	     -2.81200365	     -0.20655152	     -0.91321177	     -5.22217198	     -0.27471353	     -0.97028751	     -4.61984080	     -0.50220938	     -0.97028751	     -3.21383897	     -0.50220938	     -0.79906030	     -2.61122659	     -0.42119987	     -0.74198456	     -1.60677889	     -0.31994831	     -0.68490883	    -20.08586089	     -2.33655216	     -5.07900991	      0.00000000	      0.00000000	      2.70980860	     -0.68714104	     -6.01712087	     -6.19244243	    -15.57226938	     20.88958315	     43.36077211	     89.99559364	      0.00000000	      0.00000000	      0.24207763	    -15.95141879	     14.50118057	     37.74349123	     89.99559364	      0.00000000	      0.00000000
      0.16666667	      4.40872670	     -5.55603852	    -55.00606400	     -0.58925296	      0.98521244	     -0.96645168	     -9.66243913	     -0.51855619	     27.02484435	     13.11032338	      0.22881831	      0.00000000	      0.00000000	      0.00000000	     -8.03846193	     -8.13571171	    -20.01945626	     13.27570717	      0.23170480	     25.59685714	     -1.22714012	      0.00000000	     -2.78589146	     -0.21404319	     -0.89009101	     -5.17367903	     -0.28467744	     -0.94572170	     -4.57694108	     -0.52042461	     -0.94572170	     -3.18399535	     -0.52042461	     -0.77882964	     -2.58697881	     -0.43647687	     -0.72319895	     -1.59185838	     -0.33155290	     -0.66756826	    -19.89934410	     -2.42129935	     -4.95041919	      0.00000000	      0.00000000	      2.94073517	      0.00808209	     -6.43925649	     -6.00219881	    -15.13146750	     20.63028658	     41.96413928	     89.99559364	      0.00000000	      0.00000000	      0.46100583	    -16.05148225	     14.80194239	     37.70116901	     89.99559364	      0.00000000	      0.00000000
